<?xml version="1.0" standalone="no"?>
<!DOCTYPE svg PUBLIC "-//W3C//DTD SVG 20010904//EN"
 "http://www.w3.org/TR/2001/REC-SVG-20010904/DTD/svg10.dtd">
<svg version="1.0" xmlns="http://www.w3.org/2000/svg"
 width="260.000000pt" height="260.000000pt" viewBox="0 0 260.000000 260.000000"
 preserveAspectRatio="xMidYMid meet">
<metadata>
Created by potrace 1.11, written by Peter Selinger 2001-2013
</metadata>
<g transform="translate(0.000000,260.000000) scale(0.100000,-0.100000)"
fill="#000000" stroke="none">
<path d="M58 2584 c-61 -33 -58 41 -58 -1284 0 -1330 -4 -1252 60 -1285 25
-13 177 -15 1240 -15 1330 0 1252 -4 1285 60 13 25 15 177 15 1240 0 1330 4
1252 -60 1285 -25 13 -177 15 -1242 15 -1053 -1 -1217 -3 -1240 -16z m887
-1149 c0 -778 3 -752 -88 -840 -56 -54 -117 -79 -214 -90 -29 -3 -75 -7 -103
-10 l-50 -6 0 136 0 135 38 0 c51 0 84 19 104 60 17 32 18 85 18 656 0 341 3
624 7 628 4 3 70 5 147 4 l141 -3 0 -670z m994 594 l143 -23 -6 -86 c-4 -47
-9 -100 -13 -119 l-6 -34 -61 7 c-305 32 -446 32 -511 0 -74 -36 -106 -121
-69 -183 26 -44 89 -76 279 -141 261 -89 330 -132 382 -238 27 -54 28 -64 28
-197 0 -138 0 -141 -34 -212 -54 -116 -141 -188 -276 -229 -90 -28 -311 -26
-475 4 -213 39 -195 32 -192 78 2 47 21 187 25 190 1 2 72 -5 157 -15 211 -25
361 -23 417 7 24 12 50 33 59 47 23 35 36 101 28 141 -13 71 -71 104 -301 174
-196 59 -323 143 -373 244 -43 89 -47 240 -10 352 43 129 165 223 330 254 78
15 324 4 479 -21z"/>
</g>
</svg>
